HIERARCHY
ROOT Hips
{
    OFFSET 0.000000 0.000000 0.000000
    CHANNELS 6 Xposition Yposition Zposition Zrotation Xrotation Yrotation
    JOINT Spine
    {
        OFFSET -0.000000 8.185774 0.000000
        CHANNELS 3 Zrotation Xrotation Yrotation
        JOINT Spine1
        {
            OFFSET -0.000000 23.949169 0.000000
            CHANNELS 3 Zrotation Xrotation Yrotation
            JOINT Neck
            {
                OFFSET -0.000000 23.850817 2.168256
                CHANNELS 3 Zrotation Xrotation Yrotation
                JOINT Head
                {
                    OFFSET -0.000000 13.975711 -1.996530
                    CHANNELS 3 Zrotation Xrotation Yrotation
                    End Site
                    {
                        OFFSET -0.000000 24.956627 0.000000
                    }
                }
            }
            JOINT LeftShoulder
            {
                OFFSET 3.979389 22.161966 -0.249083
                CHANNELS 3 Zrotation Xrotation Yrotation
                JOINT LeftArm
                {
                    OFFSET 10.812937 0.000000 0.000000
                    CHANNELS 3 Zrotation Xrotation Yrotation
                    JOINT LeftForeArm
                    {
                        OFFSET 31.697208 0.000000 0.000000
                        CHANNELS 3 Zrotation Xrotation Yrotation
                        JOINT LeftHand
                        {
                            OFFSET 27.047384 0.000000 0.000000
                            CHANNELS 3 Zrotation Xrotation Yrotation
                            End Site
                            {
                                OFFSET 14.973977 0.000000 0.000000
                            }
                        }
                    }
                }
            }
            JOINT RightShoulder
            {
                OFFSET -4.006446 22.161966 -0.249083
                CHANNELS 3 Zrotation Xrotation Yrotation
                JOINT RightArm
                {
                    OFFSET -10.812937 0.000000 0.000000
                    CHANNELS 3 Zrotation Xrotation Yrotation
                    JOINT RightForeArm
                    {
                        OFFSET -31.697208 0.000000 0.000000
                        CHANNELS 3 Zrotation Xrotation Yrotation
                        JOINT RightHand
                        {
                            OFFSET -27.047384 0.000000 0.000000
                            CHANNELS 3 Zrotation Xrotation Yrotation
                            End Site
                            {
                                OFFSET -14.973977 0.000000 0.000000
                            }
                        }
                    }
                }
            }
        }
    }
    JOINT LeftUpLeg
    {
        OFFSET 9.982651 0.000000 0.000000
        CHANNELS 3 Zrotation Xrotation Yrotation
        JOINT LeftLeg
        {
            OFFSET -0.000000 -38.511635 0.000000
            CHANNELS 3 Zrotation Xrotation Yrotation
            JOINT LeftFoot
            {
                OFFSET -0.000000 -44.789326 0.000000
                CHANNELS 3 Zrotation Xrotation Yrotation
                JOINT LeftToeBase
                {
                    OFFSET -0.000000 -6.488723 14.973977
                    CHANNELS 3 Zrotation Xrotation Yrotation
                    End Site
                    {
                        OFFSET -0.000000 0.000000 3.993060
                    }
                }
            }
        }
    }
    JOINT RightUpLeg
    {
        OFFSET -9.982651 0.000000 0.000000
        CHANNELS 3 Zrotation Xrotation Yrotation
        JOINT RightLeg
        {
            OFFSET -0.000000 -38.511635 0.000000
            CHANNELS 3 Zrotation Xrotation Yrotation
            JOINT RightFoot
            {
                OFFSET -0.000000 -44.789326 0.000000
                CHANNELS 3 Zrotation Xrotation Yrotation
                JOINT RightToeBase
                {
                    OFFSET -0.000000 -6.488723 14.973977
                    CHANNELS 3 Zrotation Xrotation Yrotation
                    End Site
                    {
                        OFFSET -0.000000 0.000000 3.993060
                    }
                }
            }
        }
    }
}
MOTION
Frames:    10
Frame Time:    0.008333
-10.163118    83.368950    -124.493256    5.087563    -14.676674    -170.739624    2.629451    -1.633259    -3.510526    5.938872    28.714153    -5.069454    3.698549    27.749977    -1.415777    -9.404924    -45.366428    -6.040813    9.843165    -0.183194    -6.625138    -52.431232    33.437115    -31.158588    40.236115    -39.300552    -70.332474    -0.415600    -12.443730    -0.438204    -10.979388    4.064614    3.803252    70.956093    31.152184    4.030423    -20.436716    -11.175814    42.136147    -21.460310    -1.214559    -10.850563    14.408498    -50.954773    21.551189    86.707939    86.401085    -84.086113    3.149537    6.465944    1.118775    0.000000    0.000000    0.000000    -5.173584    -61.407341    -6.950868    -2.002918    40.951881    11.725294    8.651939    -1.249263    -24.264660    0.000000    0.000000    0.000000    
-10.161236    83.100662    -125.838158    4.980924    -14.308818    -170.709045    2.518522    -1.482845    -3.590566    6.148677    28.822592    -5.204641    3.443314    27.536032    -1.502434    -9.232737    -45.124767    -6.055370    9.508725    -0.174949    -6.583766    -52.296204    33.462677    -31.118002    40.326157    -38.836670    -70.142181    -0.899678    -11.893985    -0.152240    -11.461783    3.916952    4.076845    71.054398    29.452471    3.974385    -19.629463    -10.113517    42.260681    -21.608877    -0.502623    -10.403101    15.414592    -51.992455    21.481089    123.802612    86.863747    -121.671837    3.705606    3.631673    1.191234    0.000000    0.000000    0.000000    -5.418546    -61.675606    -7.062739    -1.753880    43.351871    12.499626    7.996027    -1.666056    -24.810049    0.000000    0.000000    0.000000    
-10.119074    82.851517    -127.153465    5.088159    -13.926679    -170.547150    2.703005    -1.264600    -3.590849    6.058222    28.756428    -5.175140    3.623578    27.697861    -1.747990    -9.139122    -45.333714    -6.252033    9.556327    -0.026528    -6.880965    -52.293083    33.850452    -31.094339    40.111958    -38.772141    -69.952454    -0.844308    -12.101502    0.064785    -11.347309    3.852588    4.107749    70.847847    29.794233    3.646856    -20.030458    -10.302255    41.909065    -21.161015    -0.631705    -10.488441    16.294304    -52.951012    21.813555    141.780457    85.979515    -139.630417    4.473203    0.542428    0.782168    0.000000    0.000000    0.000000    -5.406276    -61.846519    -7.421816    -1.915744    45.591225    13.342540    7.421524    -2.095837    -25.151506    0.000000    0.000000    0.000000    
-10.166936    82.599716    -128.504318    4.850258    -13.543151    -170.591354    2.604408    -1.129819    -3.517351    5.864324    28.929949    -5.057114    4.030537    27.554497    -2.083869    -9.348692    -45.131256    -6.655452    9.559700    0.146159    -7.123087    -52.387749    33.919842    -31.250668    40.324257    -38.334152    -69.346573    -1.351632    -11.724615    0.205725    -11.141571    3.606171    4.102103    70.346375    29.535173    3.385784    -19.647223    -10.011566    41.827068    -21.583868    -0.470524    -10.457066    16.769009    -53.801952    21.919928    153.745163    85.527000    -151.374496    5.254506    -1.422776    1.166918    0.000000    0.000000    0.000000    -5.804200    -61.943413    -7.699271    -1.873323    47.825542    13.885516    7.213845    -2.806463    -25.538025    0.000000    0.000000    0.000000    
-10.186367    82.369820    -129.822891    4.732353    -13.146977    -170.614151    2.461269    -0.733042    -3.698749    6.157555    28.654720    -5.288634    3.235728    28.016376    -2.027726    -8.633898    -45.616322    -6.328728    8.901244    0.443742    -7.134760    -52.299244    33.764179    -30.873503    39.788174    -37.793953    -69.251335    -1.624983    -11.546988    0.301602    -11.670441    3.529823    4.465551    70.183601    29.386263    3.513032    -19.619511    -9.652449    41.412155    -21.067543    -0.275968    -10.310352    17.469345    -54.806061    22.161659    161.211761    85.025978    -158.781509    5.388741    -2.533851    1.695692    0.000000    0.000000    0.000000    -5.956374    -61.913124    -7.697894    -1.681796    49.792442    14.059238    6.999983    -3.237463    -25.710945    0.000000    0.000000    0.000000    
-10.218237    82.136452    -131.158691    4.536259    -12.732200    -170.890121    2.392658    -0.516584    -3.427636    5.780890    28.825357    -4.925321    3.767285    27.984425    -2.246888    -8.456879    -45.560101    -6.397640    8.982772    0.461168    -7.427771    -52.286957    34.405327    -31.036596    40.190804    -37.513863    -67.930031    -2.062257    -11.608066    0.065840    -11.096565    3.328392    4.449382    69.505898    29.643431    3.183759    -19.686522    -9.752198    41.074417    -21.404736    -0.384627    -10.321058    18.521240    -55.707951    22.680658    169.781723    84.640862    -167.439865    4.971114    -3.442545    2.564999    0.000000    0.000000    0.000000    -5.724775    -61.759079    -6.906424    -1.083708    51.504047    13.426647    6.780817    -3.470347    -25.558542    0.000000    0.000000    0.000000    
-10.183891    81.922447    -132.484619    4.594492    -12.311327    -170.761597    1.980849    -0.327636    -3.524101    6.652044    28.880060    -5.244510    3.507664    28.268959    -2.279840    -8.665320    -45.914463    -6.590071    8.362650    0.642319    -7.380549    -52.355244    34.169624    -30.981064    39.213436    -36.582569    -67.755203    -2.132010    -11.332073    -0.026135    -11.661370    3.235232    4.750190    69.229538    28.324793    3.450558    -18.969881    -8.852380    40.882210    -21.897263    0.218614    -10.113138    19.523262    -56.749763    23.064383    174.648148    84.497040    -171.365448    4.499919    -4.333466    2.583131    0.000000    0.000000    0.000000    -5.595503    -61.474689    -7.372391    -1.571995    53.056717    14.062050    6.219195    -3.645876    -25.260309    0.000000    0.000000    0.000000    
-10.230422    81.711578    -133.805222    4.336151    -12.009510    -170.916656    1.837098    -0.273373    -3.241274    6.253955    29.192877    -4.875819    4.227147    28.119501    -2.499363    -8.657825    -45.758991    -6.723690    8.511833    0.798146    -7.679887    -52.111256    34.840748    -31.535683    39.518288    -36.135777    -65.939445    -2.159466    -11.509480    -0.629766    -11.168035    3.063111    4.737237    68.769073    28.381527    3.273912    -19.082626    -9.082292    40.275028    -22.553822    -0.049840    -9.998627    20.243927    -57.811893    23.708805    178.825027    84.708496    -174.268372    4.315765    -5.328938    2.548908    0.000000    0.000000    0.000000    -5.456242    -61.255646    -7.301899    -1.961303    54.536491    14.544023    5.465080    -3.852531    -25.043818    0.000000    0.000000    0.000000    
-10.236658    81.529800    -135.084457    4.192047    -11.724439    -170.944061    1.474736    -0.016999    -3.296015    6.633740    28.977739    -5.012281    4.135605    28.424761    -2.405883    -8.989311    -45.814457    -6.806245    7.925150    1.060450    -7.744576    -52.135181    35.288387    -31.259787    39.587692    -35.554096    -64.428474    -1.886910    -11.540061    -1.113201    -11.444683    3.116468    4.961753    68.340714    27.502857    3.667451    -18.643938    -8.329925    39.872902    -21.506689    0.283322    -9.518770    21.094500    -58.743153    24.391829    -176.798950    85.166817    -178.334900    4.274040    -6.406402    3.261015    0.000000    0.000000    0.000000    -5.166959    -60.875401    -7.218049    -2.469221    55.762562    15.125395    4.596791    -4.380106    -25.006811    0.000000    0.000000    0.000000    
-10.222018    81.357803    -136.409698    4.102239    -11.428321    -170.857712    1.488318    -0.040200    -3.072875    6.175592    29.287205    -4.688509    4.764119    28.105192    -2.674325    -8.601006    -45.357994    -6.782468    8.149738    1.094257    -7.898680    -51.999046    35.454693    -31.675783    38.768379    -34.213707    -63.322117    -1.046354    -11.101256    -1.325946    -10.861749    2.926690    4.663411    67.851875    27.499809    3.633140    -18.288366    -8.530302    39.424469    -22.177252    -0.070105    -9.548462    22.014807    -59.792114    25.025909    -171.197662    85.800591    176.131058    4.811552    -7.405252    3.902359    0.000000    0.000000    0.000000    -4.932443    -60.292572    -7.251058    -2.963070    56.847504    15.821073    3.720517    -5.346459    -25.214123    0.000000    0.000000    0.000000    
